<svg xmlns="http://www.w3.org/2000/svg" width="18" height="13" viewBox="0 0 18 13">
  <g id="eye-visible" transform="translate(-1427 -446)">
    <g id="Group_2750" data-name="Group 2750" transform="translate(1221.072 296.795)">
      <path id="Path_6952" data-name="Path 6952" d="M215.333,151.206a9.077,9.077,0,0,1,5.122,1.589,12.8,12.8,0,0,1,3.1,2.961.667.667,0,0,1,0,.873,12.876,12.876,0,0,1-3.076,2.942,9.3,9.3,0,0,1-4.153,1.563A8.944,8.944,0,0,1,210.7,159.9a12.478,12.478,0,0,1-3.612-3.286.657.657,0,0,1,0-.846,12.458,12.458,0,0,1,3.67-3.317,9.016,9.016,0,0,1,3.732-1.213c.141-.013.283-.025.424-.031S215.191,151.206,215.333,151.206Zm-.135,1.462a3.527,3.527,0,1,0,3.656,3.417A3.536,3.536,0,0,0,215.2,152.668Z" fill="#5b2c92"/>
      <path id="Path_6953" data-name="Path 6953" d="M408.909,247.257a1.9,1.9,0,1,1-1.868-1.9A1.9,1.9,0,0,1,408.909,247.257Z" transform="translate(-191.682 -91.061)" fill="#5b2c92"/>
    </g>
    <rect id="Rectangle_409" data-name="Rectangle 409" width="18" height="13" transform="translate(1427 446)" fill="none"/>
  </g>
</svg>
