<svg xmlns="http://www.w3.org/2000/svg" width="18" height="13.307" viewBox="0 0 18 13.307">
  <g id="eye-invisible" transform="translate(-1427 -464)">
    <g id="Group_1559" data-name="Group 1559" transform="translate(1428 465)">
      <path id="Path_1734" data-name="Path 1734" d="M78.288,268.991c-.724-.563-1.452-1.08-2.12-1.666-.568-.5-1.073-1.07-1.589-1.624a.546.546,0,0,1-.008-.837,14.2,14.2,0,0,1,4.864-3.837,7.676,7.676,0,0,1,3.453-.773,7.823,7.823,0,0,1,3.141.739.226.226,0,0,0,.307-.055c.522-.532,1.052-1.055,1.579-1.583a.563.563,0,1,1,.79.789L77.623,271.225a.566.566,0,0,1-.687.156.515.515,0,0,1-.3-.554.828.828,0,0,1,.209-.391C77.322,269.94,77.818,269.458,78.288,268.991Zm2.157-2.241,3.81-3.8a2.748,2.748,0,0,0-3.81,3.8Z" transform="translate(-74.38 -259.132)" fill="#5b2c92"/>
      <path id="Path_1735" data-name="Path 1735" d="M227.349,345.06l1.458-1.445a.294.294,0,0,0,.029-.027.99.99,0,0,1,.907-.4,2.734,2.734,0,0,0,2.644-2.3,7,7,0,0,0,.02-.752.255.255,0,0,1,.047-.159q1.282-1.286,2.57-2.564a.338.338,0,0,1,.055-.023c.339.277.714.543,1.042.859.593.571,1.165,1.165,1.731,1.764a.534.534,0,0,1,.014.791,13.65,13.65,0,0,1-5.55,4.139,7.248,7.248,0,0,1-4.657.221C227.571,345.135,227.484,345.1,227.349,345.06Z" transform="translate(-221.242 -334.262)" fill="#5b2c92"/>
    </g>
    <rect id="Rectangle_408" data-name="Rectangle 408" width="18" height="13" transform="translate(1427 464)" fill="none"/>
  </g>
</svg>
