<svg xmlns="http://www.w3.org/2000/svg" width="228" height="68.659" viewBox="0 0 228 68.659">
  <g id="Group_2723" data-name="Group 2723" transform="translate(-121.5 -82)">
    <g id="Group_2711" data-name="Group 2711" transform="translate(121.5 82)">
      <path id="Path_6896" data-name="Path 6896" d="M340.981,273.5a8.576,8.576,0,0,0-6.521-4.313A35.226,35.226,0,0,1,340.981,273.5Zm-31.573,4.866a25.266,25.266,0,0,1-5.575,1.28v51.615c10.557-.838,31.553-14.329,36.7-6.934-4.971-8.078-19.994-14.647-31.123-14.832Z" transform="translate(-299.256 -262.597)" fill="#fff"/>
      <path id="Path_6897" data-name="Path 6897" d="M340.863,273.437c-2.885-4.522-7.087-6.25-11.953-6.6A36.627,36.627,0,0,1,340.863,273.437Zm-31.573-4.146a59.393,59.393,0,0,1-10.152,1.118v51.605c11.1.21,35.521-6.008,41.193,2.11-5.057-8.017-19.977-14.519-31.043-14.7Z" transform="translate(-299.138 -262.539)" fill="#bda1dc"/>
      <path id="Path_6898" data-name="Path 6898" d="M341.027,273.326c-8.995-10.742-20.917-10.914-35.318-10.9v51.608c10.367.2,27.149,1.182,33.6,8.336-5.912-7.241-17.956-14.483-28.26-14.655V267.669c6.985-.431,19.093-3.436,29.976,5.657Z" transform="translate(-299.303 -262.428)" fill="#fff"/>
    </g>
    <rect id="Rectangle_305" data-name="Rectangle 305" width="100.12" height="37.77" transform="translate(249.38 93.462)" fill="#fff"/>
    <g id="Group_2720" data-name="Group 2720" transform="translate(146.105 100.658)" style="isolation: isolate">
      <path id="Path_6909" data-name="Path 6909" d="M328.479,282.093v11.818l12.1-12.1h2.1l-3.331,3.331-6.909,6.909,11.609,11.609H338.23l-8.7-8.7-1.053-1.053v9.751h-4.1v-22.1Z" transform="translate(-324.376 -281.566)" fill="#fff"/>
      <path id="Path_6910" data-name="Path 6910" d="M351.107,303.669H347v-21.85l4.1.525v6.665a16.689,16.689,0,0,1,5.261-.772c4.1,0,8.242,1.3,8.874,3.823a16.363,16.363,0,0,1,.455,4.033v7.576h-4.1v-7.576a18.682,18.682,0,0,0-.246-3.261c-.35-2.034-2.665-3.123-4.98-3.123a11.53,11.53,0,0,0-5.261,1.123v12.837Z" transform="translate(-324.943 -281.572)" fill="#fff"/>
      <path id="Path_6911" data-name="Path 6911" d="M388.325,303.831l-4.1-.525a16.374,16.374,0,0,1-5.226.77c-4.139,0-8.242-1.3-8.909-3.823a16.126,16.126,0,0,1-.456-4.033,16.814,16.814,0,0,1,.456-4.068c.632-2.56,4.735-3.858,8.873-3.858s8.278,1.3,8.944,3.928a15.164,15.164,0,0,1,.421,3.683Zm-4.1-7.681a18.049,18.049,0,0,0-.246-3.192c-.385-2.1-2.665-3.156-5.016-3.156-2.279,0-4.629,1.052-4.98,3.122a22.243,22.243,0,0,0,0,6.594c.351,2.034,2.7,3.087,5.016,3.087a11.045,11.045,0,0,0,5.226-1.123Z" transform="translate(-325.51 -281.735)" fill="#fff"/>
      <path id="Path_6912" data-name="Path 6912" d="M398.023,282.344V288.8h4.384v1.578h-4.384v13.293h-4.1V290.376h-2.6V288.8h2.6v-6.979Z" transform="translate(-326.054 -281.572)" fill="#fff"/>
      <path id="Path_6913" data-name="Path 6913" d="M423.507,303.831l-4.1-.525a16.37,16.37,0,0,1-5.226.77c-4.139,0-8.242-1.3-8.909-3.823a16.167,16.167,0,0,1-.455-4.033,16.857,16.857,0,0,1,.455-4.068c.632-2.56,4.735-3.858,8.874-3.858s8.278,1.3,8.944,3.928a15.214,15.214,0,0,1,.42,3.683Zm-4.1-7.681a18.061,18.061,0,0,0-.246-3.192c-.385-2.1-2.665-3.156-5.015-3.156-2.279,0-4.629,1.052-4.98,3.122a22.243,22.243,0,0,0,0,6.594c.351,2.034,2.7,3.087,5.015,3.087a11.045,11.045,0,0,0,5.226-1.123Z" transform="translate(-326.392 -281.735)" fill="#fff"/>
    </g>
    <g id="Group_2721" data-name="Group 2721" transform="translate(257.792 101.041)" style="isolation: isolate">
      <path id="Path_6914" data-name="Path 6914" d="M443.037,282.486v11.819l12.1-12.1h2.1l-3.331,3.331L447,292.446l11.608,11.609h-5.821l-8.7-8.7-1.052-1.052v9.75h-4.1v-22.1Z" transform="translate(-438.934 -281.959)" fill="#5b2c92"/>
      <path id="Path_6915" data-name="Path 6915" d="M466.078,285.657c-.315,1.439-4.383,1.4-4.734.07a5.668,5.668,0,0,1,0-2.175c.351-1.367,4.384-1.367,4.734.036A4.13,4.13,0,0,1,466.078,285.657Zm-4.419,18.414V288.954l4.1.562V304.07Z" transform="translate(-439.493 -281.973)" fill="#5b2c92"/>
      <path id="Path_6916" data-name="Path 6916" d="M475.995,282.737v6.454h4.384v1.578h-4.384v13.293h-4.1V290.769h-2.6v-1.578h2.6v-6.98Z" transform="translate(-439.695 -281.965)" fill="#5b2c92"/>
      <path id="Path_6917" data-name="Path 6917" d="M501.481,304.224l-4.105-.526a16.363,16.363,0,0,1-5.225.77c-4.139,0-8.243-1.3-8.91-3.823a16.164,16.164,0,0,1-.456-4.033,16.848,16.848,0,0,1,.456-4.068c.633-2.561,4.735-3.859,8.875-3.859s8.276,1.3,8.943,3.928a15.16,15.16,0,0,1,.422,3.683Zm-4.105-7.681a18.15,18.15,0,0,0-.245-3.192c-.386-2.1-2.666-3.156-5.015-3.156-2.28,0-4.631,1.053-4.981,3.122a22.326,22.326,0,0,0,0,6.594c.35,2.034,2.7,3.087,5.016,3.087a11.046,11.046,0,0,0,5.225-1.122Z" transform="translate(-440.033 -282.128)" fill="#5b2c92"/>
      <path id="Path_6918" data-name="Path 6918" d="M505.2,282.212l4.1.526V289.4a16.691,16.691,0,0,1,5.261-.772c4.1,0,8.243,1.3,8.874,3.823a16.316,16.316,0,0,1,.455,4.033,16.608,16.608,0,0,1-.455,4.069c-.667,2.6-4.77,3.893-8.874,3.893-4.138,0-8.242-1.333-8.909-3.964a14.122,14.122,0,0,1-.455-3.962Zm4.1,14.31a18.738,18.738,0,0,0,.245,3.226c.387,2.139,2.667,3.192,5.016,3.192,2.315,0,4.595-1.053,4.98-3.156a22.014,22.014,0,0,0,0-6.559c-.351-2.034-2.666-3.122-4.98-3.122a11.54,11.54,0,0,0-5.261,1.122Z" transform="translate(-440.595 -281.965)" fill="#5b2c92"/>
    </g>
  </g>
</svg>
