<svg xmlns="http://www.w3.org/2000/svg" width="173.274" height="52.179" viewBox="0 0 173.274 52.179">
  <g id="Group_2722" data-name="Group 2722" transform="translate(-121.5 -82)">
    <g id="Group_2711" data-name="Group 2711" transform="translate(121.5 82)">
      <path id="Path_6896" data-name="Path 6896" d="M332.064,272.46a6.518,6.518,0,0,0-4.956-3.278A26.771,26.771,0,0,1,332.064,272.46Zm-23.995,3.7a19.2,19.2,0,0,1-4.237.973v39.226c8.023-.637,23.979-10.889,27.889-5.27-3.778-6.139-15.195-11.132-23.653-11.272Z" transform="translate(-300.354 -264.178)" fill="#5b2c92"/>
      <path id="Path_6897" data-name="Path 6897" d="M330.848,271.854c-2.192-3.436-5.386-4.75-9.084-5.012A27.835,27.835,0,0,1,330.848,271.854ZM306.853,268.7a45.137,45.137,0,0,1-7.715.85v39.219c8.435.159,26.995-4.566,31.306,1.6-3.843-6.093-15.182-11.034-23.592-11.174Z" transform="translate(-299.138 -263.572)" fill="#bda1dc"/>
      <path id="Path_6898" data-name="Path 6898" d="M332.55,270.71c-6.836-8.164-15.9-8.295-26.841-8.281V301.65c7.878.15,20.633.9,25.537,6.335-4.493-5.5-13.646-11.006-21.477-11.138V266.411c5.309-.327,14.51-2.611,22.781,4.3Z" transform="translate(-300.84 -262.428)" fill="#5b2c92"/>
    </g>
    <rect id="Rectangle_305" data-name="Rectangle 305" width="76.088" height="28.704" transform="translate(218.686 90.711)" fill="#5b2c92"/>
    <g id="Group_2720" data-name="Group 2720" transform="translate(140.2 96.18)" style="isolation: isolate">
      <path id="Path_6909" data-name="Path 6909" d="M327.495,281.967v8.982l9.2-9.195h1.6l-2.532,2.532-5.251,5.251,8.822,8.823H334.9l-6.61-6.611-.8-.8v7.411h-3.119V281.566Z" transform="translate(-324.376 -281.566)" fill="#040505"/>
      <path id="Path_6910" data-name="Path 6910" d="M350.123,298.425H347V281.819l3.119.4v5.065a12.683,12.683,0,0,1,4-.587c3.119,0,6.264.986,6.744,2.905a12.436,12.436,0,0,1,.346,3.065v5.758h-3.119v-5.758a14.2,14.2,0,0,0-.187-2.478c-.266-1.546-2.026-2.373-3.785-2.373a8.763,8.763,0,0,0-4,.854v9.756Z" transform="translate(-330.238 -281.632)" fill="#040505"/>
      <path id="Path_6911" data-name="Path 6911" d="M383.838,300.1l-3.119-.4a12.443,12.443,0,0,1-3.971.585c-3.145,0-6.264-.986-6.771-2.905a12.254,12.254,0,0,1-.347-3.065,12.777,12.777,0,0,1,.347-3.092c.48-1.946,3.6-2.932,6.743-2.932s6.291.986,6.8,2.985a11.524,11.524,0,0,1,.32,2.8Zm-3.119-5.838a13.718,13.718,0,0,0-.187-2.426c-.293-1.6-2.026-2.4-3.812-2.4-1.732,0-3.518.8-3.785,2.372a16.9,16.9,0,0,0,0,5.011c.267,1.546,2.052,2.346,3.812,2.346a8.394,8.394,0,0,0,3.971-.854Z" transform="translate(-336.1 -283.309)" fill="#040505"/>
      <path id="Path_6912" data-name="Path 6912" d="M396.415,282.218v4.9h3.332v1.2h-3.332v10.1H393.3v-10.1h-1.972v-1.2H393.3v-5.3Z" transform="translate(-341.72 -281.632)" fill="#040505"/>
      <path id="Path_6913" data-name="Path 6913" d="M419.021,300.1l-3.119-.4a12.441,12.441,0,0,1-3.971.585c-3.145,0-6.264-.986-6.771-2.905a12.287,12.287,0,0,1-.346-3.065,12.811,12.811,0,0,1,.346-3.092c.48-1.946,3.6-2.932,6.744-2.932s6.291.986,6.8,2.985a11.563,11.563,0,0,1,.319,2.8Zm-3.119-5.838a13.724,13.724,0,0,0-.187-2.426c-.293-1.6-2.026-2.4-3.811-2.4-1.732,0-3.518.8-3.785,2.372a16.9,16.9,0,0,0,0,5.011c.267,1.546,2.052,2.346,3.811,2.346a8.394,8.394,0,0,0,3.971-.854Z" transform="translate(-345.215 -283.309)" fill="#040505"/>
    </g>
    <g id="Group_2721" data-name="Group 2721" transform="translate(225.078 96.471)" style="isolation: isolate">
      <path id="Path_6914" data-name="Path 6914" d="M442.053,282.36v8.982l9.2-9.2h1.6l-2.532,2.532-5.251,5.251,8.821,8.823h-4.424l-6.611-6.611-.8-.8v7.41h-3.119V281.959Z" transform="translate(-438.934 -281.959)" fill="#fff"/>
      <path id="Path_6915" data-name="Path 6915" d="M464.916,284.906c-.239,1.094-3.331,1.066-3.6.053a4.308,4.308,0,0,1,0-1.653c.267-1.039,3.332-1.039,3.6.027A3.139,3.139,0,0,1,464.916,284.906ZM461.557,298.9V287.412l3.119.427V298.9Z" transform="translate(-444.712 -282.107)" fill="#fff"/>
      <path id="Path_6916" data-name="Path 6916" d="M474.387,282.611v4.9h3.332v1.2h-3.332v10.1h-3.118v-10.1h-1.973v-1.2h1.973v-5.3Z" transform="translate(-446.8 -282.025)" fill="#fff"/>
      <path id="Path_6917" data-name="Path 6917" d="M496.994,300.5l-3.12-.4a12.435,12.435,0,0,1-3.971.585c-3.145,0-6.264-.985-6.771-2.905a12.283,12.283,0,0,1-.347-3.065,12.8,12.8,0,0,1,.347-3.091c.481-1.946,3.6-2.933,6.745-2.933s6.29.986,6.8,2.985a11.521,11.521,0,0,1,.321,2.8Zm-3.12-5.838a13.8,13.8,0,0,0-.186-2.426c-.293-1.6-2.026-2.4-3.811-2.4-1.733,0-3.519.8-3.785,2.372a16.97,16.97,0,0,0,0,5.011c.266,1.546,2.052,2.346,3.812,2.346a8.4,8.4,0,0,0,3.971-.853Z" transform="translate(-450.295 -283.702)" fill="#fff"/>
      <path id="Path_6918" data-name="Path 6918" d="M505.2,282.212l3.119.4v5.065a12.685,12.685,0,0,1,4-.587c3.119,0,6.265.986,6.744,2.905a12.4,12.4,0,0,1,.346,3.065,12.623,12.623,0,0,1-.346,3.093c-.507,1.972-3.625,2.958-6.744,2.958-3.145,0-6.264-1.013-6.771-3.013a10.732,10.732,0,0,1-.346-3.011Zm3.119,10.875a14.241,14.241,0,0,0,.186,2.452c.294,1.626,2.026,2.426,3.812,2.426,1.759,0,3.492-.8,3.785-2.4a16.73,16.73,0,0,0,0-4.985c-.267-1.546-2.026-2.372-3.785-2.372a8.77,8.77,0,0,0-4,.853Z" transform="translate(-456.1 -282.025)" fill="#fff"/>
    </g>
  </g>
</svg>
